<svg xmlns="http://www.w3.org/2000/svg" xmlns:xlink="http://www.w3.org/1999/xlink" id="Layer_1" x="0px" y="0px" width="180px" height="40.001px" viewBox="0 0 180 40.001" xml:space="preserve"> <g> <g> <g> <path fill="#343334" d="M23.684,15.851c-5.402-1.496-10.858-2.079-11.073-4.807c-0.002-2.14,2.617-2.569,4.223-2.569 c1.177-0.003,2.513,0.265,3.477,0.959c0.963,0.642,1.606,1.604,1.392,3.048l11.124-0.009c-0.326-9.305-7.656-12.455-15.946-12.45 C9.02,0.03,1.482,3.832,1.488,12.656c0.005,7.701,6.905,9.354,12.951,11.061c6.578,1.866,8.236,2.402,8.238,4.379 c0.002,2.836-2.939,3.48-4.865,3.481c-2.192,0.002-4.759-0.48-5.617-2.777c-0.268-0.696-0.428-1.552-0.43-2.514L0,26.293 C0.115,38.488,12.471,40.03,16.803,40.025c8.503-0.004,17.647-3.22,17.639-13.166C34.436,19.854,29.089,17.343,23.684,15.851z M59.352,15.825c-5.402-1.495-10.858-2.078-11.074-4.807c-0.002-2.139,2.62-2.568,4.223-2.57 c1.178-0.001,2.514,0.265,3.477,0.961c0.963,0.641,1.606,1.603,1.392,3.049l11.125-0.012C68.168,3.144,60.839-0.009,52.549,0 c-7.862,0.003-15.4,3.806-15.393,12.631c0.004,7.701,6.905,9.354,12.951,11.062c6.578,1.867,8.237,2.402,8.239,4.379 c0.001,2.836-2.939,3.478-4.865,3.479c-2.194,0.004-4.761-0.477-5.618-2.775c-0.267-0.696-0.43-1.552-0.429-2.512L35.67,26.27 c0.114,12.194,12.469,13.737,16.801,13.731c8.504-0.006,17.646-3.219,17.639-13.168C70.106,19.828,64.756,17.317,59.352,15.825z M179.984,8.781c-0.004-4.497-3.652-8.141-8.149-8.138l-32.727,0.022c-4.497,0.004-8.141,3.653-8.137,8.149l0.016,22.589 c0.004,4.498,3.652,8.142,8.15,8.141l32.726-0.024c4.497-0.003,8.14-3.649,8.137-8.149L179.984,8.781z M163.352,33.093 l-20.904,0.017c-2.845,0-5.156-2.609-5.157-5.83l-0.011-14.38c-0.002-3.221,2.305-5.834,5.152-5.838l20.903-0.014 c2.845-0.002,5.155,2.609,5.157,5.831l0.011,14.376C168.505,30.477,166.198,33.093,163.352,33.093z M106.205,24.776l-0.107,0.001 l-4.51-23.904L91.213,0.88L86.63,24.47h-0.106l-4.67-23.583L70.303,0.895l10.402,38.179l11.497-0.008l3.994-23.267h0.108 l4.133,23.262l11.445-0.009l10.669-38.193l-11.605,0.01L106.205,24.776z"></path> </g> </g> <path fill="#D34241" d="M145.155,27.326l2.82-0.004l-0.007-10.46l3.847-0.003l-0.001-2.373l-10.514,0.008l0.001,2.371l3.847-0.001 L145.155,27.326z"></path> <path fill="#D34241" d="M164.142,14.479l-2.911,0.001l-2.887,9.026h-0.036l-2.864-9.021l-2.912,0.002l4.179,12.83l3.182-0.003 L164.142,14.479z"></path> <g> <rect x="171.835" y="14.471" fill="#FFFFFF" width="5.233" height="5.232"></rect> <rect x="171.835" y="22.093" fill="#FFFFFF" width="5.233" height="5.233"></rect> </g> </g> </svg>